<?xml version="1.0" standalone="no"?>
<!DOCTYPE svg PUBLIC "-//W3C//DTD SVG 20010904//EN"
 "http://www.w3.org/TR/2001/REC-SVG-20010904/DTD/svg10.dtd">
<svg version="1.0" xmlns="http://www.w3.org/2000/svg"
 width="580.000000pt" height="580.000000pt" viewBox="0 0 580.000000 580.000000"
 preserveAspectRatio="xMidYMid meet">
<metadata>
Created by potrace 1.11, written by Peter Selinger 2001-2013
</metadata>
<g transform="translate(0.000000,580.000000) scale(0.100000,-0.100000)"
fill="#000000" stroke="none">
<path d="M2590 5414 c-503 -67 -984 -311 -1341 -681 -176 -183 -302 -364 -415
-598 -100 -207 -156 -379 -200 -620 -27 -145 -27 -605 0 -750 45 -245 106
-434 209 -644 94 -192 267 -440 391 -560 l45 -45 -11 40 c-17 56 -14 262 5
374 30 179 103 392 167 486 26 39 30 51 21 70 -5 12 -62 110 -125 218 -208
352 -298 542 -345 726 -58 232 12 365 207 389 163 20 270 -27 333 -149 33 -63
33 -183 0 -255 -42 -94 -119 -146 -192 -130 -23 5 -29 3 -29 -11 0 -32 207
-500 257 -582 l21 -34 44 69 c102 156 295 370 438 486 65 52 78 68 96 117 82
228 275 331 464 249 101 -45 134 -100 135 -226 0 -78 -3 -96 -21 -120 -18 -23
-29 -28 -65 -28 -51 0 -56 11 -58 115 -2 133 -33 176 -104 147 -61 -26 -108
-126 -139 -297 -19 -109 -16 -482 5 -577 32 -147 70 -195 167 -209 171 -26
453 156 772 497 179 192 287 329 373 474 6 10 16 16 23 14 17 -6 -39 -120
-115 -234 -249 -377 -681 -747 -968 -830 -75 -22 -182 -16 -247 13 -63 27
-138 104 -171 173 -64 136 -102 366 -95 582 l5 148 -70 -68 c-149 -146 -367
-427 -404 -522 l-16 -40 39 -56 c123 -175 171 -250 214 -340 115 -236 154
-462 115 -679 -19 -110 -69 -180 -174 -243 -34 -21 -61 -27 -130 -32 l-86 -6
85 -53 c704 -438 1631 -449 2355 -27 l60 34 -797 1 -798 0 0 390 0 390 953 -2
952 -3 5 -268 5 -269 110 114 c330 338 532 736 621 1223 15 81 19 151 19 375
0 293 -7 357 -61 570 -56 220 -177 494 -301 685 -365 558 -964 934 -1626 1020
-147 19 -462 18 -607 -1z"/>
<path d="M1290 3750 c-46 -46 -68 -241 -39 -353 36 -146 217 -96 268 74 15 50
14 133 -3 172 -39 94 -175 158 -226 107z"/>
<path d="M1505 2287 c-62 -140 -111 -411 -102 -567 6 -111 25 -178 68 -243 43
-65 94 -91 183 -92 67 0 69 1 101 38 38 44 49 88 47 190 -1 81 -29 236 -46
257 -6 8 -23 49 -36 90 -24 74 -144 326 -174 365 -14 19 -16 17 -41 -38z"/>
<path d="M2560 1580 l0 -340 818 0 817 0 95 73 c52 39 93 75 92 80 -1 4 -2
124 -2 267 l0 260 -910 0 -910 0 0 -340z m756 186 c27 -20 10 -32 -18 -12 -32
22 -55 20 -83 -9 -29 -28 -33 -79 -10 -112 8 -11 35 -33 60 -47 79 -46 99
-124 46 -177 -21 -21 -39 -29 -64 -29 -36 0 -88 32 -74 46 4 5 11 4 15 -2 10
-15 47 -34 67 -34 31 0 65 46 65 88 0 42 -21 72 -69 97 -16 8 -41 29 -56 47
-23 27 -26 39 -22 72 10 71 89 111 143 72z m371 -12 c19 -27 15 -42 -5 -17
-41 52 -118 32 -147 -39 -9 -24 -15 -70 -15 -121 0 -92 17 -137 62 -171 23
-16 34 -18 65 -10 l38 9 3 87 3 87 -33 4 c-29 3 -28 4 10 5 l42 2 0 -89 c0
-82 -2 -91 -22 -105 -12 -9 -40 -16 -61 -16 -50 0 -100 47 -117 111 -26 94 0
225 54 271 27 24 103 19 123 -8z m529 12 c27 -20 10 -32 -18 -12 -32 22 -55
20 -83 -9 -29 -28 -33 -79 -10 -113 9 -12 36 -34 61 -48 76 -45 96 -116 47
-174 -24 -29 -30 -32 -72 -27 -41 5 -80 32 -65 46 3 3 8 1 12 -5 10 -15 47
-34 67 -34 31 0 65 46 65 89 0 33 -6 44 -35 68 -109 87 -110 88 -110 138 0 39
5 51 28 71 32 27 83 32 113 10z m-1365 -33 c75 -84 55 -286 -32 -330 -29 -15
-119 -17 -119 -3 0 6 -1 87 -1 180 0 94 1 175 1 181 0 8 20 10 61 7 54 -4 66
-9 90 -35z m207 30 l-68 -4 0 -84 0 -85 63 -2 62 -2 -62 -3 -63 -4 0 -89 0
-89 68 -4 67 -4 -73 1 -73 1 0 180 c0 99 0 183 1 188 0 4 33 6 73 5 l72 -2
-67 -3z m372 -185 c0 -105 -2 -189 -5 -186 -4 3 -6 87 -6 187 1 214 0 191 6
191 3 0 5 -86 5 -192z m406 155 c15 -35 29 -68 110 -253 l29 -65 5 180 6 180
2 -193 c1 -144 -1 -193 -10 -190 -6 2 -45 82 -87 178 l-76 173 -3 -176 c-1
-97 -6 -177 -10 -177 -5 0 -7 277 -3 368 2 25 22 11 37 -25z"/>
<path d="M2710 1580 l0 -180 35 0 c87 0 135 64 135 180 0 116 -48 180 -135
180 l-35 0 0 -180z"/>
</g>
</svg>
